<?xml version="1.0" standalone="no"?><!DOCTYPE svg PUBLIC "-//W3C//DTD SVG 1.1//EN" "http://www.w3.org/Graphics/SVG/1.1/DTD/svg11.dtd"><svg t="1509523879507" class="icon" style="" viewBox="0 0 1024 1024" version="1.1" xmlns="http://www.w3.org/2000/svg" p-id="7905" xmlns:xlink="http://www.w3.org/1999/xlink" width="200" height="200"><defs><style type="text/css"></style></defs><path d="M512 469.333333C488.533333 469.333333 469.333333 488.533333 469.333333 512 469.333333 535.466667 488.533333 554.666667 512 554.666667 535.466667 554.666667 554.666667 535.466667 554.666667 512 554.666667 488.533333 535.466667 469.333333 512 469.333333M512 704C405.333333 704 320 618.666667 320 512 320 405.333333 405.333333 320 512 320 618.666667 320 704 405.333333 704 512 704 618.666667 618.666667 704 512 704M512 85.333333C276.48 85.333333 85.333333 276.48 85.333333 512 85.333333 747.52 276.48 938.666667 512 938.666667 747.52 938.666667 938.666667 747.52 938.666667 512 938.666667 276.48 747.52 85.333333 512 85.333333Z" p-id="7906" fill="#ffcd32"></path></svg>