<?xml version="1.0" standalone="no"?><!DOCTYPE svg PUBLIC "-//W3C//DTD SVG 1.1//EN" "http://www.w3.org/Graphics/SVG/1.1/DTD/svg11.dtd"><svg t="1508139282692" class="icon" style="" viewBox="0 0 1024 1024" version="1.1" xmlns="http://www.w3.org/2000/svg" p-id="989" xmlns:xlink="http://www.w3.org/1999/xlink" width="200" height="200"><defs><style type="text/css"></style></defs><path d="M686.250667 984.931556c-32.298667 0-62.648889-12.572444-85.489778-35.399111L252.245333 601.002667c-23.409778-23.395556-36.209778-55.765333-35.256889-88.96-0.967111-33.237333 11.847111-65.621333 35.256889-89.045333L600.775111 74.467556c22.826667-22.826667 53.176889-35.399111 85.475556-35.399111 32.298667 0 62.648889 12.572444 85.475556 35.399111 47.132444 47.132444 47.132444 123.832889 0 170.965333L505.159111 512l266.567111 266.552889c47.132444 47.132444 47.132444 123.832889 0 170.965333C748.885333 972.359111 718.535111 984.931556 686.250667 984.931556zM686.250667 95.957333c-17.095111 0-33.166222 6.656-45.255111 18.730667L299.207111 463.217778c-12.672 12.700444-11.847111 29.639111-11.847111 47.715556 0 0.725333 0 1.436444 0 2.147556 0 18.076444-0.824889 35.000889 11.847111 47.687111l345.159111 348.529778c12.088889 12.088889 26.481778 18.730667 43.562667 18.730667 17.109333 0 32.327111-6.656 44.416-18.730667 24.96-24.96 24.533333-65.564444-0.426667-90.524444L445.041778 532.110222c-11.107556-11.107556-11.207111-29.112889-0.099556-40.220444L731.562667 205.226667c24.945778-24.96 24.931556-65.564444-0.014222-90.524444C719.459556 102.613333 703.345778 95.957333 686.250667 95.957333z" p-id="990" fill="#ffcd32"></path></svg>