<?xml version="1.0" standalone="no"?><!DOCTYPE svg PUBLIC "-//W3C//DTD SVG 1.1//EN" "http://www.w3.org/Graphics/SVG/1.1/DTD/svg11.dtd"><svg t="1509440621192" class="icon" style="" viewBox="0 0 1024 1024" version="1.1" xmlns="http://www.w3.org/2000/svg" p-id="1854" xmlns:xlink="http://www.w3.org/1999/xlink" width="200" height="200"><defs><style type="text/css"></style></defs><path d="M249.6 364.8C243.2 377.6 224 384 217.6 377.6 204.8 377.6 198.4 358.4 198.4 345.6c6.4-19.2 19.2-32 25.6-51.2l0 0 0 0C236.8 281.6 249.6 268.8 262.4 256l0 0 0 0c12.8-12.8 25.6-25.6 44.8-38.4C320 211.2 339.2 198.4 358.4 192 371.2 185.6 384 192 390.4 204.8c6.4 12.8 0 25.6-12.8 32C358.4 243.2 345.6 249.6 332.8 262.4 320 268.8 307.2 281.6 300.8 288l0 0C288 300.8 275.2 313.6 268.8 326.4l0 0C262.4 339.2 249.6 352 249.6 364.8L249.6 364.8zM812.8 748.8l179.2 179.2c19.2 19.2 19.2 44.8 0 57.6-12.8 19.2-44.8 19.2-57.6 0l-179.2-179.2c-32 32-70.4 51.2-115.2 70.4-51.2 19.2-108.8 32-172.8 32-57.6 0-121.6-12.8-172.8-32l0 0 0 0c-57.6-25.6-102.4-57.6-147.2-96l0 0c-38.4-38.4-76.8-89.6-96-147.2l0 0C32 576 19.2 518.4 19.2 460.8c0-57.6 12.8-121.6 32-172.8 25.6-57.6 57.6-102.4 96-147.2 83.2-83.2 192-134.4 320-134.4 57.6 0 121.6 12.8 172.8 32l0 0 0 0c57.6 25.6 102.4 57.6 147.2 96l0 0c38.4 38.4 70.4 89.6 96 140.8l0 0c19.2 51.2 32 108.8 32 166.4 0 57.6-12.8 121.6-32 172.8C864 672 844.8 716.8 812.8 748.8L812.8 748.8zM608 121.6C563.2 102.4 518.4 96 467.2 96c-102.4 0-192 38.4-256 108.8C172.8 236.8 147.2 275.2 128 320 115.2 364.8 102.4 409.6 102.4 460.8 102.4 512 115.2 556.8 128 601.6l0 0c19.2 44.8 44.8 83.2 76.8 121.6l0 0 0 0c32 32 76.8 64 121.6 76.8l0 0c44.8 19.2 89.6 25.6 140.8 25.6 51.2 0 96-12.8 140.8-25.6 44.8-19.2 83.2-44.8 115.2-76.8l0 0 0 0c32-32 64-76.8 76.8-121.6 19.2-44.8 25.6-89.6 25.6-140.8 0-51.2-6.4-96-25.6-140.8l0 0c-19.2-44.8-44.8-83.2-76.8-115.2l0 0C691.2 166.4 652.8 140.8 608 121.6L608 121.6 608 121.6z" p-id="1855"></path></svg>