<?xml version="1.0" standalone="no"?><!DOCTYPE svg PUBLIC "-//W3C//DTD SVG 1.1//EN" "http://www.w3.org/Graphics/SVG/1.1/DTD/svg11.dtd"><svg t="1508311840780" class="icon" style="" viewBox="0 0 1024 1024" version="1.1" xmlns="http://www.w3.org/2000/svg" p-id="28692" xmlns:xlink="http://www.w3.org/1999/xlink" width="200" height="200"><defs><style type="text/css"></style></defs><path d="M886.766933 490.632533 508.1088 886.545067 129.621333 490.632533c-10.973867-11.434667-28.842667-11.434667-39.816533 0-11.042133 11.554133-11.042133 30.173867 0 41.745067l398.421333 416.648533c11.042133 11.537067 28.808533 11.537067 39.799467 0l398.574933-416.648533c11.008-11.5712 11.008-30.190933 0-41.745067C915.524267 479.1808 897.757867 479.1808 886.766933 490.632533" p-id="28693" fill="#ffcd32"></path><path d="M886.766933 112.913067 508.1088 508.8256 129.621333 112.913067c-10.973867-11.434667-28.842667-11.434667-39.816533 0-11.042133 11.537067-11.042133 30.1568 0 41.728l398.421333 416.6656c11.042133 11.537067 28.808533 11.537067 39.799467 0L926.600533 154.641067c11.008-11.5712 11.008-30.208 0-41.728C915.524267 101.461333 897.757867 101.461333 886.766933 112.913067" p-id="28694" fill="#ffcd32"></path></svg>