<?xml version="1.0" standalone="no"?><!DOCTYPE svg PUBLIC "-//W3C//DTD SVG 1.1//EN" "http://www.w3.org/Graphics/SVG/1.1/DTD/svg11.dtd"><svg t="1506651756903" class="icon" style="" viewBox="0 0 1024 1024" version="1.1" xmlns="http://www.w3.org/2000/svg" p-id="15072" xmlns:xlink="http://www.w3.org/1999/xlink" width="200" height="200"><defs><style type="text/css"></style></defs><path d="M511.322112 142.682112c-206.2848 0-373.377024 167.094272-373.377024 373.379072v1.640448c18.200576-5.904384 37.71392-9.347072 58.048512-9.347072 1.6384 0 3.442688 0.16384 5.081088 0.32768v373.213184h63.131648c11.313152 0 20.332544-9.183232 20.332544-20.498432v-342.05696c0-11.3152-9.181184-20.334592-20.332544-20.334592H203.208704c5.738496-165.289984 141.348864-297.619456 308.113408-297.619456 166.76864 0 302.211072 132.329472 307.949568 297.619456h-56.408064c-11.147264 0-20.496384 9.183232-20.496384 20.334592v342.05696c0 11.15136 9.179136 20.498432 20.496384 20.498432h63.131648V508.35456c20.496384 0 40.175616 3.442688 58.537984 9.508864v-1.80224c0.167936-206.2848-166.926336-373.379072-373.211136-373.379072zM9.222144 695.126016c0 82.808832 54.114304 152.991744 128.724992 177.424384V517.863424c-74.610688 24.2688-128.724992 94.451712-128.724992 177.262592z m875.47904-177.262592V872.22272c74.446848-24.434688 128.065536-94.619648 128.065536-177.098752 0.002048-82.642944-53.618688-152.498176-128.065536-177.260544z" p-id="15073" fill="#ffcd32"></path><path d="M658.409472 730.546176a21.577728 21.577728 0 0 0-21.477376-19.679232c-11.3152 0-20.498432 8.689664-21.481472 19.679232v151.349248h43.126784l-0.167936-151.349248z m-86.25152-86.089728v-1.476608a21.62688 21.62688 0 0 0-21.643264-21.643264 21.622784 21.622784 0 0 0-21.643264 21.643264v238.751744h43.126784l0.159744-237.275136z m-86.417408-43.126784v-1.640448a21.622784 21.622784 0 0 0-21.643264-21.643264c-11.3152 0-20.662272 8.689664-21.481472 19.841024v284.010496h43.124736V601.329664z m-86.249472 129.216512c-0.32768-11.808768-10.00448-21.317632-21.97504-21.317632-11.80672 0-21.479424 9.510912-21.972992 21.151744v151.351296h43.948032v-151.185408z" p-id="15074" fill="#ffcd32"></path></svg>