<?xml version="1.0" standalone="no"?><!DOCTYPE svg PUBLIC "-//W3C//DTD SVG 1.1//EN" "http://www.w3.org/Graphics/SVG/1.1/DTD/svg11.dtd"><svg t="1508475713331" class="icon" style="" viewBox="0 0 1024 1024" version="1.1" xmlns="http://www.w3.org/2000/svg" p-id="4741" xmlns:xlink="http://www.w3.org/1999/xlink" width="200" height="200"><defs><style type="text/css"></style></defs><path d="M512 0C229.218 0 0 229.218 0 512s229.218 512 512 512 512-229.218 512-512S794.782 0 512 0zM512 944c-238.594 0-432-193.406-432-432S273.406 80 512 80s432 193.406 432 432S750.594 944 512 944z" p-id="4742" fill="#ffcd32"></path><path d="M672 448 672 480 768 416.5 672 352 672 384 544 384 416 576 256 576.5 256 640 448 640 576 448Z" p-id="4743" fill="#ffcd32"></path><path d="M439.438 483.156 476.782 427.156 448 384 256 384 256 448 416 448Z" p-id="4744" fill="#ffcd32"></path><path d="M672 576 576 576 552.562 540.844 515.25 596.844 544 640 672 640 672 672 768 607.5 672 544Z" p-id="4745" fill="#ffcd32"></path></svg>