<?xml version="1.0" standalone="no"?><!DOCTYPE svg PUBLIC "-//W3C//DTD SVG 1.1//EN" "http://www.w3.org/Graphics/SVG/1.1/DTD/svg11.dtd"><svg t="1509420177803" class="icon" style="" viewBox="0 0 1024 1024" version="1.1" xmlns="http://www.w3.org/2000/svg" p-id="2467" xmlns:xlink="http://www.w3.org/1999/xlink" width="200" height="200"><defs><style type="text/css"></style></defs><path d="M227.555556 694.044444l-28.444445 193.422223c-11.377778 68.266667 28.444444 102.4 91.022222 79.644444l227.555556-79.644444 227.555555 91.022222c56.888889 22.755556 96.711111-11.377778 85.333334-73.955556l-28.444445-164.977777L227.555556 694.044444z" fill="#D32436" p-id="2468"></path><path d="M512 466.488889m-426.666667 0a426.666667 426.666667 0 1 0 853.333334 0 426.666667 426.666667 0 1 0-853.333334 0Z" fill="#F5A623" p-id="2469"></path><path d="M512 466.488889m-369.777778 0a369.777778 369.777778 0 1 0 739.555556 0 369.777778 369.777778 0 1 0-739.555556 0Z" fill="#EDDE2F" p-id="2470"></path><path d="M398.222222 358.4v-39.822222c34.133333 0 56.888889-11.377778 73.955556-17.066667 17.066667-5.688889 22.755556-28.444444 34.133333-56.888889h39.822222v398.222222h-56.888889v-284.444444H398.222222z" fill="#D32436" p-id="2471"></path></svg>