<?xml version="1.0" standalone="no"?><!DOCTYPE svg PUBLIC "-//W3C//DTD SVG 1.1//EN" "http://www.w3.org/Graphics/SVG/1.1/DTD/svg11.dtd"><svg t="1509420186323" class="icon" style="" viewBox="0 0 1024 1024" version="1.1" xmlns="http://www.w3.org/2000/svg" p-id="2693" xmlns:xlink="http://www.w3.org/1999/xlink" width="200" height="200"><defs><style type="text/css"></style></defs><path d="M227.555556 694.044444l-28.444445 193.422223c-11.377778 68.266667 28.444444 102.4 91.022222 79.644444l227.555556-79.644444 227.555555 91.022222c56.888889 22.755556 96.711111-11.377778 85.333334-73.955556l-28.444445-164.977777L227.555556 694.044444z" fill="#B06E0F" p-id="2694"></path><path d="M512 466.488889m-426.666667 0a426.666667 426.666667 0 1 0 853.333334 0 426.666667 426.666667 0 1 0-853.333334 0Z" fill="#DA921A" p-id="2695"></path><path d="M512 466.488889m-369.777778 0a369.777778 369.777778 0 1 0 739.555556 0 369.777778 369.777778 0 1 0-739.555556 0Z" fill="#F8B71C" p-id="2696"></path><path d="M386.844444 608.711111c-22.755556-28.444444-34.133333-56.888889-34.133333-96.711111h51.2c0 28.444444 5.688889 45.511111 17.066667 56.888889 11.377778 22.755556 34.133333 34.133333 68.266666 34.133333 28.444444 0 45.511111-5.688889 62.577778-22.755555 17.066667-11.377778 22.755556-34.133333 22.755556-56.888889 0-28.444444-5.688889-45.511111-22.755556-56.888889S512 455.111111 483.555556 455.111111h-11.377778-11.377778v-45.511111h22.755556c17.066667 0 34.133333-5.688889 45.511111-11.377778 22.755556-11.377778 34.133333-28.444444 34.133333-56.888889 0-17.066667-5.688889-34.133333-22.755556-45.511111-11.377778-5.688889-28.444444-11.377778-45.511111-11.377778-34.133333 0-56.888889 11.377778-68.266666 34.133334-5.688889 11.377778-11.377778 28.444444-11.377778 51.2h-51.2c0-28.444444 5.688889-56.888889 17.066667-73.955556 22.755556-39.822222 56.888889-56.888889 108.088888-56.888889 39.822222 0 73.955556 11.377778 96.711112 28.444445 22.755556 17.066667 34.133333 45.511111 34.133333 79.644444 0 22.755556-5.688889 45.511111-17.066667 56.888889-5.688889 11.377778-17.066667 17.066667-34.133333 22.755556 22.755556 5.688889 39.822222 17.066667 51.2 34.133333 11.377778 17.066667 17.066667 34.133333 17.066667 62.577778 0 39.822222-11.377778 68.266667-39.822223 91.022222-22.755556 22.755556-62.577778 34.133333-108.088889 34.133333-45.511111 0-79.644444-11.377778-102.4-39.822222z" fill="#B3791E" p-id="2697"></path></svg>