<?xml version="1.0" standalone="no"?><!DOCTYPE svg PUBLIC "-//W3C//DTD SVG 1.1//EN" "http://www.w3.org/Graphics/SVG/1.1/DTD/svg11.dtd"><svg t="1509420182456" class="icon" style="" viewBox="0 0 1024 1024" version="1.1" xmlns="http://www.w3.org/2000/svg" p-id="2580" xmlns:xlink="http://www.w3.org/1999/xlink" width="200" height="200"><defs><style type="text/css"></style></defs><path d="M227.555556 694.044444l-28.444445 193.422223c-11.377778 68.266667 28.444444 102.4 91.022222 79.644444l227.555556-79.644444 227.555555 91.022222c56.888889 22.755556 96.711111-11.377778 85.333334-73.955556l-28.444445-164.977777L227.555556 694.044444z" fill="#DD6A10" p-id="2581"></path><path d="M512 466.488889m-426.666667 0a426.666667 426.666667 0 1 0 853.333334 0 426.666667 426.666667 0 1 0-853.333334 0Z" fill="#D1983A" p-id="2582"></path><path d="M512 466.488889m-369.777778 0a369.777778 369.777778 0 1 0 739.555556 0 369.777778 369.777778 0 1 0-739.555556 0Z" fill="#F6F1B4" p-id="2583"></path><path d="M381.155556 551.822222c11.377778-28.444444 34.133333-51.2 73.955555-68.266666l51.2-28.444445c22.755556-11.377778 39.822222-28.444444 51.2-34.133333 11.377778-22.755556 22.755556-39.822222 22.755556-56.888889 0-22.755556-5.688889-39.822222-22.755556-56.888889-11.377778-17.066667-34.133333-22.755556-56.888889-22.755556-34.133333 0-56.888889 11.377778-73.955555 39.822223 0 17.066667-5.688889 34.133333-5.688889 56.888889h-51.2c0-34.133333 5.688889-62.577778 17.066666-85.333334 22.755556-39.822222 62.577778-56.888889 113.777778-56.888889 45.511111 0 79.644444 11.377778 102.4 34.133334 22.755556 22.755556 34.133333 51.2 34.133334 79.644444 0 34.133333-11.377778 56.888889-34.133334 79.644445-17.066667 22.755556-39.822222 39.822222-73.955555 56.888888l-34.133334 22.755556c-22.755556 5.688889-34.133333 17.066667-45.511111 28.444444-17.066667 17.066667-28.444444 34.133333-34.133333 51.2h216.177778v45.511112H358.4c0-34.133333 11.377778-62.577778 22.755556-85.333334z" fill="#DBA84A" p-id="2584"></path></svg>