<?xml version="1.0" standalone="no"?><!DOCTYPE svg PUBLIC "-//W3C//DTD SVG 1.1//EN" "http://www.w3.org/Graphics/SVG/1.1/DTD/svg11.dtd"><svg t="1509420073284" class="icon" style="" viewBox="0 0 1024 1024" version="1.1" xmlns="http://www.w3.org/2000/svg" p-id="996" xmlns:xlink="http://www.w3.org/1999/xlink" width="200" height="200"><defs><style type="text/css"></style></defs><path d="M831.104 291.488c49.088 0 88.896 39.488 88.896 88.208 0 48.72-39.792 88.208-88.896 88.208-49.088 0-88.896-39.488-88.896-88.208C742.224 330.976 782.016 291.488 831.104 291.488z" p-id="997" fill="#ffcd32"></path><path d="M511.104 168c58.912 0 106.672 47.392 106.672 105.84 0 58.448-47.76 105.84-106.672 105.84s-106.672-47.392-106.672-105.84C404.448 215.392 452.192 168 511.104 168z" p-id="998" fill="#ffcd32"></path><path d="M208.88 291.488c49.088 0 88.896 39.488 88.896 88.208 0 48.72-39.792 88.208-88.896 88.208-49.088 0-88.896-39.488-88.896-88.208C120 330.976 159.792 291.488 208.88 291.488z" p-id="999" fill="#ffcd32"></path><path d="M205.504 573.728 382.4 697.216l128.656-229.328 144.736 229.328 176.912-123.488c24.864-12.416 33.952 0.832 32.16 35.28l-32.16 194.048c-3.936 29.216-21.6 52.928-48.24 52.928l-530.72 0c-26.64 0-43.536-20.256-48.24-52.928l-32.16-194.048C173.92 581.744 180.64 561.984 205.504 573.728z" p-id="1000" fill="#ffcd32"></path><path d="M784.464 880l-530.72 0c-37.872 0-65.456-28.16-72-73.504L149.28 610.736l0.048-2.256c1.2-54.144 27.6-62.224 43.216-62.224 7.408 0 15.008 1.888 23.216 5.776l3.472 2 155.2 108.336 135.424-241.392 152.832 242.16 159.296-110.896c21.968-10.96 41.168-8.768 53.68 4.4 10.464 11.024 14.528 27.568 13.168 53.6l-0.304 2.672-32.16 194.064C850.56 850.368 821.616 880 784.464 880zM197.376 607.392l31.792 191.76C232.352 821.104 240.592 832 253.744 832l530.72 0c13.904 0 22.32-16.144 24.464-32.128l32.032-193.408c0.176-3.76 0.16-6.816 0.048-9.264l-192.08 134.08-136.672-216.496-121.888 217.264-192.208-134.16C197.824 600.304 197.536 603.408 197.376 607.392z" p-id="1001" fill="#ffcd32"></path></svg>