<?xml version="1.0" standalone="no"?><!DOCTYPE svg PUBLIC "-//W3C//DTD SVG 1.1//EN" "http://www.w3.org/Graphics/SVG/1.1/DTD/svg11.dtd"><svg t="1506653408540" class="icon" style="" viewBox="0 0 1024 1024" version="1.1" xmlns="http://www.w3.org/2000/svg" p-id="1676" xmlns:xlink="http://www.w3.org/1999/xlink" width="200" height="200"><defs><style type="text/css"></style></defs><path d="M397.312 744.913455c-181.775515 0-329.69697-147.921455-329.69697-329.69697S215.536485 85.519515 397.312 85.519515 727.04 233.44097 727.04 415.216485c0 84.340364-31.837091 164.615758-89.615515 225.993697a326.749091 326.749091 0 0 1-240.081455 103.703273z m588.8 215.226181l-0.620606-0.682666-1.148121-1.210182-282.59297-296.89794a389.864727 389.864727 0 0 0 87.319273-246.132363c0-215.970909-175.755636-391.757576-391.757576-391.757576C181.341091 23.458909 5.585455 199.214545 5.585455 415.216485s175.755636 391.757576 391.757575 391.757576c96.566303 0 190.091636-36.460606 261.616485-100.600243l282.189576 296.525576 0.093091-0.062061c5.988848 6.299152 14.273939 10.302061 23.61406 9.929697 17.252848-0.682667 30.657939-15.204848 29.975273-32.457697a30.968242 30.968242 0 0 0-8.781576-20.107636l0.093091-0.062061z" p-id="1677" fill="#ffcd32"></path></svg>