<?xml version="1.0" standalone="no"?><!DOCTYPE svg PUBLIC "-//W3C//DTD SVG 1.1//EN" "http://www.w3.org/Graphics/SVG/1.1/DTD/svg11.dtd"><svg t="1508294049709" class="icon" style="" viewBox="0 0 1024 1024" version="1.1" xmlns="http://www.w3.org/2000/svg" p-id="2411" xmlns:xlink="http://www.w3.org/1999/xlink" width="200" height="200"><defs><style type="text/css"></style></defs><path d="M902.4 409.6l-64-12.8C838.4 384 832 371.2 825.6 358.4l32-51.2c19.2-25.6 12.8-64-12.8-89.6l-44.8-44.8c-25.6-25.6-57.6-25.6-89.6-12.8l-51.2 32C652.8 192 640 185.6 627.2 179.2l-12.8-64C608 89.6 576 64 544 64l-64 0C448 64 416 89.6 409.6 121.6l-12.8 64C384 185.6 371.2 192 358.4 198.4L307.2 160c-25.6-19.2-64-12.8-89.6 12.8L172.8 217.6C147.2 243.2 147.2 281.6 160 307.2l32 51.2C192 371.2 185.6 384 179.2 396.8l-64 12.8C89.6 416 64 448 64 480l0 64c0 32 25.6 64 57.6 70.4l64 12.8C185.6 640 192 652.8 198.4 665.6l-32 51.2c-19.2 25.6-12.8 64 12.8 89.6l44.8 44.8c25.6 25.6 57.6 25.6 89.6 12.8l51.2-32C371.2 832 384 838.4 396.8 844.8l12.8 64C416 934.4 448 960 480 960l64 0c32 0 64-25.6 70.4-57.6l12.8-64c12.8-6.4 25.6-6.4 32-12.8l51.2 32c25.6 19.2 64 12.8 89.6-12.8l44.8-44.8c25.6-25.6 25.6-57.6 12.8-89.6l-32-51.2c6.4-12.8 12.8-25.6 12.8-32l64-12.8C934.4 608 960 576 960 544l0-64C960 448 934.4 416 902.4 409.6zM896 544c0 6.4 0 6.4-6.4 6.4l-70.4 19.2c-12.8 6.4-25.6 12.8-32 32C780.8 614.4 774.4 627.2 768 640c-6.4 12.8-6.4 32 0 44.8l38.4 64c0 0 0 6.4 0 12.8l-44.8 44.8c0 0-6.4 0-12.8 0l-64-38.4c-12.8-6.4-32-6.4-44.8 0-12.8 6.4-25.6 12.8-44.8 19.2-19.2 6.4-25.6 19.2-32 32l-19.2 70.4C550.4 896 550.4 896 544 896l-64 0c-6.4 0-6.4 0-6.4-6.4l-19.2-70.4c-6.4-12.8-12.8-25.6-32-32C409.6 780.8 396.8 774.4 384 768c-6.4-6.4-12.8-6.4-19.2-6.4-6.4 0-12.8 0-19.2 6.4l-64 38.4c0 0-6.4 0-12.8 0l-44.8-44.8c0 0 0-6.4 0-12.8l38.4-64c6.4-12.8 6.4-32 0-44.8l0 0C249.6 627.2 243.2 614.4 236.8 601.6 236.8 582.4 224 569.6 204.8 569.6L134.4 550.4C128 550.4 128 550.4 128 544l0-64c0-6.4 0-6.4 6.4-6.4l70.4-19.2c12.8-6.4 25.6-12.8 32-32C243.2 409.6 249.6 396.8 256 384c6.4-12.8 6.4-32 0-44.8l-38.4-64c0 0 0-6.4 0-12.8l44.8-44.8c0 0 6.4 0 12.8 0l64 38.4c12.8 6.4 32 6.4 44.8 0 12.8-6.4 25.6-12.8 44.8-19.2 19.2-6.4 25.6-19.2 32-32l19.2-70.4C473.6 128 473.6 128 480 128l64 0c6.4 0 6.4 0 6.4 6.4l19.2 70.4c6.4 12.8 12.8 25.6 32 32C614.4 243.2 627.2 249.6 640 256c12.8 6.4 32 6.4 44.8 0l64-38.4c6.4 0 6.4 0 12.8 0l44.8 44.8c0 0 0 6.4 0 12.8l-38.4 64c-6.4 12.8-6.4 32 0 44.8 6.4 12.8 12.8 25.6 19.2 44.8 6.4 19.2 19.2 25.6 32 32l70.4 19.2C896 473.6 896 473.6 896 480L896 544z" p-id="2412" fill="#ffcd32"></path><path d="M512 320C403.2 320 320 403.2 320 512s83.2 192 192 192 192-83.2 192-192S620.8 320 512 320zM512 640c-70.4 0-128-57.6-128-128 0-70.4 57.6-128 128-128s128 57.6 128 128C640 582.4 582.4 640 512 640z" p-id="2413" fill="#ffcd32"></path></svg>