<?xml version="1.0" standalone="no"?><!DOCTYPE svg PUBLIC "-//W3C//DTD SVG 1.1//EN" "http://www.w3.org/Graphics/SVG/1.1/DTD/svg11.dtd"><svg t="1506653352770" class="icon" style="" viewBox="0 0 1220 1024" version="1.1" xmlns="http://www.w3.org/2000/svg" p-id="1000" xmlns:xlink="http://www.w3.org/1999/xlink" width="238.28125" height="200"><defs><style type="text/css"></style></defs><path d="M50.254769 94.956308a38.912 38.912 0 1 0 0-77.784616 38.912 38.912 0 0 0 0 77.784616M371.869538 94.956308v0.472615H1156.332308v-0.472615a38.912 38.912 0 0 0 0-77.863385v-0.393846H371.869538v0.393846a38.912 38.912 0 0 0 0 77.863385M50.254769 326.340923a38.912 38.912 0 1 0 0-77.784615 38.912 38.912 0 0 0 0 77.784615M371.869538 326.340923v0.472615H1156.332308v-0.472615a38.912 38.912 0 0 0 0-77.863385V248.123077H371.869538v0.393846a38.912 38.912 0 0 0 0 77.863385M50.254769 557.725538a38.912 38.912 0 1 0 0-77.784615 38.912 38.912 0 0 0 0 77.784615M371.869538 557.725538v0.472616H1156.332308v-0.472616a38.912 38.912 0 0 0 0-77.863384v-0.393846H371.869538v0.393846a38.912 38.912 0 0 0 0 77.863384M50.254769 789.110154a38.912 38.912 0 1 0 0-77.784616 38.912 38.912 0 0 0 0 77.784616M371.869538 789.110154v0.472615H1156.332308v-0.472615a38.912 38.912 0 0 0 0-77.863385v-0.393846H371.869538v0.393846a38.912 38.912 0 0 0 0 77.863385M50.254769 1020.494769a38.912 38.912 0 1 0 0-77.784615 38.912 38.912 0 0 0 0 77.784615M371.869538 1020.494769v0.472616H1156.332308v-0.472616a38.912 38.912 0 0 0 0-77.863384v-0.393847H371.869538v0.393847a38.912 38.912 0 0 0 0 77.863384" p-id="1001" fill="#ffcd32"></path></svg>